<svg width="46" height="44" viewBox="0 0 46 44" fill="none" xmlns="http://www.w3.org/2000/svg">
<path d="M17.2045 41.1556V32.9413C17.2045 30.9017 19.2136 29.2329 21.7057 29.2329H24.275C26.767 29.2329 28.7761 30.9017 28.7761 32.9413V41.1556M41.2166 12.7514V2.5531H33.7598V6.83637M3.48864 14.1789L18.1125 2.68271C20.9523 0.439095 25.0477 0.439095 27.9068 2.68271L42.5114 14.1789C43.6125 15.0319 44.25 16.3299 44.25 17.6834V37.689C44.25 40.1922 42.1443 42.2133 39.5364 42.2133H6.46364C3.85568 42.2133 1.75 40.1922 1.75 37.689V17.6834C1.75 16.3299 2.3875 15.0319 3.48864 14.1789Z" stroke="white" stroke-width="1.8" stroke-linecap="round" stroke-linejoin="round"/>
</svg>
