<svg width="60" height="60" viewBox="0 0 60 60" fill="none" xmlns="http://www.w3.org/2000/svg">
<path d="M24.2045 50.1556V41.9413C24.2045 39.9017 26.2136 38.2329 28.7057 38.2329H31.275C33.767 38.2329 35.7761 39.9017 35.7761 41.9413V50.1556M48.2166 21.7514V11.5531H40.7598V15.8364M10.4886 23.1789L25.1125 11.6827C27.9523 9.4391 32.0477 9.4391 34.9068 11.6827L49.5114 23.1789C50.6125 24.0319 51.25 25.3299 51.25 26.6834V46.689C51.25 49.1922 49.1443 51.2133 46.5364 51.2133H13.4636C10.8557 51.2133 8.75 49.1922 8.75 46.689V26.6834C8.75 25.3299 9.3875 24.0319 10.4886 23.1789Z" stroke="#18122B" stroke-width="1.8" stroke-linecap="round" stroke-linejoin="round"/>
</svg>
