<svg width="64" height="64" viewBox="0 0 64 64" fill="none" xmlns="http://www.w3.org/2000/svg">
<path d="M63.24 31.62C63.24 14.1974 49.0426 0 31.62 0C14.1974 0 0 14.1974 0 31.62C0 40.7898 3.9525 49.0426 10.2133 54.8291C10.2133 54.8607 10.2133 54.8607 10.1816 54.8923C10.3654 55.0761 10.5705 55.2384 10.7721 55.3981C10.9174 55.5132 11.061 55.6268 11.1935 55.7461C11.254 55.7965 11.3113 55.8469 11.3674 55.8963C11.4872 56.0018 11.6018 56.1026 11.731 56.1887C12.17 56.5546 12.6467 56.9016 13.1174 57.2444C13.257 57.346 13.396 57.4472 13.5334 57.5484C13.644 57.6274 13.7468 57.6986 13.8496 57.7697C13.9523 57.8409 14.0551 57.912 14.1658 57.9911C14.7665 58.4021 15.3989 58.7816 16.063 59.1294C16.1736 59.1926 16.2922 59.2638 16.4108 59.3349C16.5294 59.4061 16.6479 59.4772 16.7586 59.5405C17.391 59.8883 18.055 60.2045 18.7507 60.4891L18.7507 60.4891C19.0037 60.6156 19.2566 60.742 19.5095 60.8369C20.2052 61.1215 20.9008 61.3744 21.5965 61.5958C21.8494 61.6906 22.1024 61.7855 22.3553 61.8487C23.1142 62.0701 23.8731 62.2598 24.632 62.4495C24.8533 62.5127 25.0747 62.576 25.3276 62.6076C26.213 62.7973 27.0983 62.9238 28.0153 63.0187C28.1418 63.0187 28.2683 63.0503 28.3948 63.0819C29.4698 63.1768 30.5449 63.24 31.62 63.24C32.6951 63.24 33.7702 63.1768 34.8136 63.0819C34.9401 63.0819 35.0666 63.0503 35.1931 63.0187C36.11 62.9238 36.9954 62.7973 37.8808 62.6076C37.9843 62.5928 38.0878 62.5642 38.1945 62.5347C38.316 62.5011 38.4417 62.4663 38.5764 62.4495C38.7756 62.3997 38.9771 62.3521 39.1789 62.3043C39.746 62.1702 40.3167 62.0353 40.853 61.8487C41.106 61.7539 41.359 61.659 41.6119 61.5958C41.8438 61.5114 42.0792 61.4306 42.3146 61.3498C42.7854 61.1882 43.2562 61.0266 43.6988 60.8369C43.9518 60.742 44.2047 60.6156 44.4576 60.4891L44.4577 60.4891C45.1217 60.2045 45.7858 59.8883 46.4498 59.5405C46.6064 59.4621 46.7509 59.3717 46.8908 59.2842C46.9768 59.2303 47.0611 59.1776 47.1454 59.1294C47.3562 59.0029 47.567 58.88 47.7778 58.757C48.1994 58.5111 48.621 58.2651 49.0426 57.9911C49.1977 57.9025 49.3372 57.7983 49.483 57.6896C49.5453 57.6431 49.6087 57.5957 49.675 57.5484C50.3074 57.1057 50.9082 56.663 51.4774 56.1887C51.5379 56.1383 51.5951 56.0879 51.6513 56.0385C51.7711 55.933 51.8857 55.8322 52.0149 55.7461L52.0152 55.7458C52.3629 55.4613 52.7106 55.1768 53.0267 54.8923C53.0267 54.8607 53.0267 54.8607 52.9951 54.8291C59.2875 49.0426 63.24 40.7898 63.24 31.62ZM47.2403 47.3351C38.6713 41.5803 24.632 41.5803 15.9997 47.3351C14.6084 48.2521 13.4701 49.3272 12.5215 50.4971C7.71528 45.6277 4.743 38.9558 4.743 31.62C4.743 16.7902 16.7902 4.743 31.62 4.743C46.4498 4.743 58.497 16.7902 58.497 31.62C58.497 38.9558 55.5247 45.6277 50.7185 50.4971C49.8015 49.3272 48.6316 48.2521 47.2403 47.3351Z" fill="#D9D9D9"/>
<path d="M63.24 31.62C63.24 14.1974 49.0426 0 31.62 0C14.1974 0 0 14.1974 0 31.62C0 40.7898 3.9525 49.0426 10.2133 54.8291C10.2133 54.8607 10.2133 54.8607 10.1816 54.8923C10.3654 55.0761 10.5705 55.2384 10.7721 55.3981C10.9174 55.5132 11.061 55.6268 11.1935 55.7461C11.254 55.7965 11.3113 55.8469 11.3674 55.8963C11.4872 56.0018 11.6018 56.1026 11.731 56.1887C12.17 56.5546 12.6467 56.9016 13.1174 57.2444C13.257 57.346 13.396 57.4472 13.5334 57.5484C13.644 57.6274 13.7468 57.6986 13.8496 57.7697C13.9523 57.8409 14.0551 57.912 14.1658 57.9911C14.7665 58.4021 15.3989 58.7816 16.063 59.1294C16.1736 59.1926 16.2922 59.2638 16.4108 59.3349C16.5294 59.4061 16.6479 59.4772 16.7586 59.5405C17.391 59.8883 18.055 60.2045 18.7507 60.4891L18.7507 60.4891C19.0037 60.6156 19.2566 60.742 19.5095 60.8369C20.2052 61.1215 20.9008 61.3744 21.5965 61.5958C21.8494 61.6906 22.1024 61.7855 22.3553 61.8487C23.1142 62.0701 23.8731 62.2598 24.632 62.4495C24.8533 62.5127 25.0747 62.576 25.3276 62.6076C26.213 62.7973 27.0983 62.9238 28.0153 63.0187C28.1418 63.0187 28.2683 63.0503 28.3948 63.0819C29.4698 63.1768 30.5449 63.24 31.62 63.24C32.6951 63.24 33.7702 63.1768 34.8136 63.0819C34.9401 63.0819 35.0666 63.0503 35.1931 63.0187C36.11 62.9238 36.9954 62.7973 37.8808 62.6076C37.9843 62.5928 38.0878 62.5642 38.1945 62.5347C38.316 62.5011 38.4417 62.4663 38.5764 62.4495C38.7756 62.3997 38.9771 62.3521 39.1789 62.3043C39.746 62.1702 40.3167 62.0353 40.853 61.8487C41.106 61.7539 41.359 61.659 41.6119 61.5958C41.8438 61.5114 42.0792 61.4306 42.3146 61.3498C42.7854 61.1882 43.2562 61.0266 43.6988 60.8369C43.9518 60.742 44.2047 60.6156 44.4576 60.4891L44.4577 60.4891C45.1217 60.2045 45.7858 59.8883 46.4498 59.5405C46.6064 59.4621 46.7509 59.3717 46.8908 59.2842C46.9768 59.2303 47.0611 59.1776 47.1454 59.1294C47.3562 59.0029 47.567 58.88 47.7778 58.757C48.1994 58.5111 48.621 58.2651 49.0426 57.9911C49.1977 57.9025 49.3372 57.7983 49.483 57.6896C49.5453 57.6431 49.6087 57.5957 49.675 57.5484C50.3074 57.1057 50.9082 56.663 51.4774 56.1887C51.5379 56.1383 51.5951 56.0879 51.6513 56.0385C51.7711 55.933 51.8857 55.8322 52.0149 55.7461L52.0152 55.7458C52.3629 55.4613 52.7106 55.1768 53.0267 54.8923C53.0267 54.8607 53.0267 54.8607 52.9951 54.8291C59.2875 49.0426 63.24 40.7898 63.24 31.62ZM47.2403 47.3351C38.6713 41.5803 24.632 41.5803 15.9997 47.3351C14.6084 48.2521 13.4701 49.3272 12.5215 50.4971C7.71528 45.6277 4.743 38.9558 4.743 31.62C4.743 16.7902 16.7902 4.743 31.62 4.743C46.4498 4.743 58.497 16.7902 58.497 31.62C58.497 38.9558 55.5247 45.6277 50.7185 50.4971C49.8015 49.3272 48.6316 48.2521 47.2403 47.3351Z" stroke="#D9D9D9"/>
<path d="M31.62 15.5876C25.0747 15.5876 19.7625 20.8998 19.7625 27.4452C19.7625 33.864 24.7901 39.0813 31.4619 39.2711H31.7465H31.9678H32.0311C38.4183 39.0497 43.4459 33.864 43.4775 27.4452C43.4775 20.8998 38.1654 15.5876 31.62 15.5876Z" fill="#D9D9D9"/>
<path d="M31.62 15.5876C25.0747 15.5876 19.7625 20.8998 19.7625 27.4452C19.7625 33.864 24.7901 39.0813 31.4619 39.2711H31.7465H31.9678H32.0311C38.4183 39.0497 43.4459 33.864 43.4775 27.4452C43.4775 20.8998 38.1654 15.5876 31.62 15.5876Z" stroke="#D9D9D9"/>
</svg>
