<svg width="34" height="34" viewBox="0 0 22 21" fill="none" xmlns="http://www.w3.org/2000/svg">
<path d="M4.69524 5.58295L1.86294 8.41526C0.712313 9.56588 0.712313 11.4344 1.86294 12.585L4.69524 15.4173L8.12745 11.9851C9.66161 10.451 12.1497 10.451 13.6937 11.9851L17.1259 15.4173L19.9582 12.585C21.1088 11.4344 21.1088 9.56588 19.9582 8.41526L17.1062 5.58295L13.6839 9.00532C12.1497 10.5395 9.66161 10.5395 8.11761 9.00532L4.69524 5.58295ZM4.69524 5.58295L5.33453 4.9338L8.11766 2.15067C9.66166 0.616504 12.1498 0.616504 13.6839 2.15067L16.4671 4.9338L17.126 5.58287L13.6938 9.01508C12.1498 10.5492 9.66166 10.5492 8.1275 9.01508L4.69524 5.58295ZM13.6838 11.985C12.1496 10.4509 9.66154 10.4509 8.11754 11.985L4.68534 15.4172L8.11754 18.8494C9.6517 20.3836 12.1398 20.3836 13.6838 18.8494L17.116 15.4172L13.6838 11.985Z" stroke="#18122B" stroke-width="1.8" stroke-miterlimit="10"/>
</svg>
